<svg xmlns="http://www.w3.org/2000/svg" viewBox="0 0 1600 900" preserveAspectRatio="xMidYMid slice"><defs><linearGradient id="a" x1="0" y1="0" x2="0" y2="1"><stop offset="0" stop-color="#6ec6ff"/><stop offset="1" stop-color="#d6f0ff"/></linearGradient></defs><rect width="1600" height="900" fill="url(#a)"/><g fill="#fff"><rect x="200" y="140" width="240" height="60"/><rect x="240" y="100" width="140" height="40"/><rect x="1000" y="220" width="280" height="60"/><rect x="1050" y="180" width="160" height="40"/></g><rect x="0" y="600" width="40" height="40" fill="#5eead4" opacity=".9"/><rect x="0" y="640" width="40" height="40" fill="#34d399" opacity=".9"/><rect x="0" y="680" width="40" height="40" fill="#5eead4" opacity=".9"/><rect x="0" y="720" width="40" height="40" fill="#22c55e" opacity=".9"/><rect x="0" y="760" width="40" height="40" fill="#34d399" opacity=".9"/><rect x="0" y="800" width="40" height="40" fill="#34d399" opacity=".9"/><rect x="0" y="840" width="40" height="40" fill="#5eead4" opacity=".9"/><rect x="0" y="880" width="40" height="40" fill="#5eead4" opacity=".9"/><rect x="40" y="600" width="40" height="40" fill="#5eead4" opacity=".9"/><rect x="40" y="640" width="40" height="40" fill="#5eead4" opacity=".9"/><rect x="40" y="680" width="40" height="40" fill="#34d399" opacity=".9"/><rect x="40" y="720" width="40" height="40" fill="#22c55e" opacity=".9"/><rect x="40" y="760" width="40" height="40" fill="#34d399" opacity=".9"/><rect x="40" y="800" width="40" height="40" fill="#5eead4" opacity=".9"/><rect x="40" y="840" width="40" height="40" fill="#5eead4" opacity=".9"/><rect x="40" y="880" width="40" height="40" fill="#22c55e" opacity=".9"/><rect x="80" y="640" width="40" height="40" fill="#22c55e" opacity=".9"/><rect x="80" y="680" width="40" height="40" fill="#34d399" opacity=".9"/><rect x="80" y="720" width="40" height="40" fill="#34d399" opacity=".9"/><rect x="80" y="760" width="40" height="40" fill="#5eead4" opacity=".9"/><rect x="80" y="800" width="40" height="40" fill="#5eead4" opacity=".9"/><rect x="80" y="840" width="40" height="40" fill="#34d399" opacity=".9"/><rect x="80" y="880" width="40" height="40" fill="#5eead4" opacity=".9"/><rect x="120" y="600" width="40" height="40" fill="#5eead4" opacity=".9"/><rect x="120" y="640" width="40" height="40" fill="#22c55e" opacity=".9"/><rect x="120" y="680" width="40" height="40" fill="#34d399" opacity=".9"/><rect x="120" y="720" width="40" height="40" fill="#34d399" opacity=".9"/><rect x="120" y="760" width="40" height="40" fill="#5eead4" opacity=".9"/><rect x="120" y="800" width="40" height="40" fill="#5eead4" opacity=".9"/><rect x="120" y="840" width="40" height="40" fill="#34d399" opacity=".9"/><rect x="120" y="880" width="40" height="40" fill="#34d399" opacity=".9"/><rect x="160" y="640" width="40" height="40" fill="#22c55e" opacity=".9"/><rect x="160" y="680" width="40" height="40" fill="#22c55e" opacity=".9"/><rect x="160" y="720" width="40" height="40" fill="#34d399" opacity=".9"/><rect x="160" y="760" width="40" height="40" fill="#5eead4" opacity=".9"/><rect x="160" y="800" width="40" height="40" fill="#22c55e" opacity=".9"/><rect x="160" y="840" width="40" height="40" fill="#34d399" opacity=".9"/><rect x="160" y="880" width="40" height="40" fill="#22c55e" opacity=".9"/><rect x="200" y="600" width="40" height="40" fill="#34d399" opacity=".9"/><rect x="200" y="640" width="40" height="40" fill="#22c55e" opacity=".9"/><rect x="200" y="680" width="40" height="40" fill="#5eead4" opacity=".9"/><rect x="200" y="720" width="40" height="40" fill="#5eead4" opacity=".9"/><rect x="200" y="760" width="40" height="40" fill="#5eead4" opacity=".9"/><rect x="200" y="800" width="40" height="40" fill="#34d399" opacity=".9"/><rect x="200" y="840" width="40" height="40" fill="#34d399" opacity=".9"/><rect x="200" y="880" width="40" height="40" fill="#5eead4" opacity=".9"/><rect x="240" y="600" width="40" height="40" fill="#22c55e" opacity=".9"/><rect x="240" y="640" width="40" height="40" fill="#34d399" opacity=".9"/><rect x="240" y="680" width="40" height="40" fill="#5eead4" opacity=".9"/><rect x="240" y="720" width="40" height="40" fill="#34d399" opacity=".9"/><rect x="240" y="760" width="40" height="40" fill="#22c55e" opacity=".9"/><rect x="240" y="800" width="40" height="40" fill="#22c55e" opacity=".9"/><rect x="240" y="840" width="40" height="40" fill="#34d399" opacity=".9"/><rect x="240" y="880" width="40" height="40" fill="#22c55e" opacity=".9"/><rect x="280" y="640" width="40" height="40" fill="#5eead4" opacity=".9"/><rect x="280" y="680" width="40" height="40" fill="#34d399" opacity=".9"/><rect x="280" y="720" width="40" height="40" fill="#34d399" opacity=".9"/><rect x="280" y="760" width="40" height="40" fill="#22c55e" opacity=".9"/><rect x="280" y="800" width="40" height="40" fill="#34d399" opacity=".9"/><rect x="280" y="840" width="40" height="40" fill="#34d399" opacity=".9"/><rect x="280" y="880" width="40" height="40" fill="#34d399" opacity=".9"/><rect x="320" y="600" width="40" height="40" fill="#5eead4" opacity=".9"/><rect x="320" y="640" width="40" height="40" fill="#5eead4" opacity=".9"/><rect x="320" y="680" width="40" height="40" fill="#34d399" opacity=".9"/><rect x="320" y="720" width="40" height="40" fill="#34d399" opacity=".9"/><rect x="320" y="760" width="40" height="40" fill="#5eead4" opacity=".9"/><rect x="320" y="800" width="40" height="40" fill="#5eead4" opacity=".9"/><rect x="320" y="840" width="40" height="40" fill="#5eead4" opacity=".9"/><rect x="320" y="880" width="40" height="40" fill="#34d399" opacity=".9"/><rect x="360" y="640" width="40" height="40" fill="#22c55e" opacity=".9"/><rect x="360" y="680" width="40" height="40" fill="#34d399" opacity=".9"/><rect x="360" y="720" width="40" height="40" fill="#22c55e" opacity=".9"/><rect x="360" y="760" width="40" height="40" fill="#22c55e" opacity=".9"/><rect x="360" y="800" width="40" height="40" fill="#22c55e" opacity=".9"/><rect x="360" y="840" width="40" height="40" fill="#34d399" opacity=".9"/><rect x="360" y="880" width="40" height="40" fill="#22c55e" opacity=".9"/><rect x="400" y="600" width="40" height="40" fill="#34d399" opacity=".9"/><rect x="400" y="640" width="40" height="40" fill="#5eead4" opacity=".9"/><rect x="400" y="680" width="40" height="40" fill="#22c55e" opacity=".9"/><rect x="400" y="720" width="40" height="40" fill="#5eead4" opacity=".9"/><rect x="400" y="760" width="40" height="40" fill="#5eead4" opacity=".9"/><rect x="400" y="800" width="40" height="40" fill="#34d399" opacity=".9"/><rect x="400" y="840" width="40" height="40" fill="#5eead4" opacity=".9"/><rect x="400" y="880" width="40" height="40" fill="#22c55e" opacity=".9"/><rect x="440" y="600" width="40" height="40" fill="#22c55e" opacity=".9"/><rect x="440" y="640" width="40" height="40" fill="#34d399" opacity=".9"/><rect x="440" y="680" width="40" height="40" fill="#34d399" opacity=".9"/><rect x="440" y="720" width="40" height="40" fill="#5eead4" opacity=".9"/><rect x="440" y="760" width="40" height="40" fill="#34d399" opacity=".9"/><rect x="440" y="800" width="40" height="40" fill="#34d399" opacity=".9"/><rect x="440" y="840" width="40" height="40" fill="#22c55e" opacity=".9"/><rect x="440" y="880" width="40" height="40" fill="#22c55e" opacity=".9"/><rect x="480" y="640" width="40" height="40" fill="#34d399" opacity=".9"/><rect x="480" y="680" width="40" height="40" fill="#22c55e" opacity=".9"/><rect x="480" y="720" width="40" height="40" fill="#22c55e" opacity=".9"/><rect x="480" y="760" width="40" height="40" fill="#5eead4" opacity=".9"/><rect x="480" y="800" width="40" height="40" fill="#34d399" opacity=".9"/><rect x="480" y="840" width="40" height="40" fill="#5eead4" opacity=".9"/><rect x="480" y="880" width="40" height="40" fill="#5eead4" opacity=".9"/><rect x="520" y="600" width="40" height="40" fill="#22c55e" opacity=".9"/><rect x="520" y="640" width="40" height="40" fill="#5eead4" opacity=".9"/><rect x="520" y="680" width="40" height="40" fill="#34d399" opacity=".9"/><rect x="520" y="720" width="40" height="40" fill="#22c55e" opacity=".9"/><rect x="520" y="760" width="40" height="40" fill="#22c55e" opacity=".9"/><rect x="520" y="800" width="40" height="40" fill="#5eead4" opacity=".9"/><rect x="520" y="840" width="40" height="40" fill="#5eead4" opacity=".9"/><rect x="520" y="880" width="40" height="40" fill="#34d399" opacity=".9"/><rect x="560" y="640" width="40" height="40" fill="#5eead4" opacity=".9"/><rect x="560" y="680" width="40" height="40" fill="#34d399" opacity=".9"/><rect x="560" y="720" width="40" height="40" fill="#34d399" opacity=".9"/><rect x="560" y="760" width="40" height="40" fill="#5eead4" opacity=".9"/><rect x="560" y="800" width="40" height="40" fill="#5eead4" opacity=".9"/><rect x="560" y="840" width="40" height="40" fill="#34d399" opacity=".9"/><rect x="560" y="880" width="40" height="40" fill="#22c55e" opacity=".9"/><rect x="600" y="600" width="40" height="40" fill="#5eead4" opacity=".9"/><rect x="600" y="640" width="40" height="40" fill="#34d399" opacity=".9"/><rect x="600" y="680" width="40" height="40" fill="#22c55e" opacity=".9"/><rect x="600" y="720" width="40" height="40" fill="#22c55e" opacity=".9"/><rect x="600" y="760" width="40" height="40" fill="#34d399" opacity=".9"/><rect x="600" y="800" width="40" height="40" fill="#5eead4" opacity=".9"/><rect x="600" y="840" width="40" height="40" fill="#34d399" opacity=".9"/><rect x="600" y="880" width="40" height="40" fill="#34d399" opacity=".9"/><rect x="640" y="600" width="40" height="40" fill="#34d399" opacity=".9"/><rect x="640" y="640" width="40" height="40" fill="#5eead4" opacity=".9"/><rect x="640" y="680" width="40" height="40" fill="#22c55e" opacity=".9"/><rect x="640" y="720" width="40" height="40" fill="#34d399" opacity=".9"/><rect x="640" y="760" width="40" height="40" fill="#22c55e" opacity=".9"/><rect x="640" y="800" width="40" height="40" fill="#22c55e" opacity=".9"/><rect x="640" y="840" width="40" height="40" fill="#5eead4" opacity=".9"/><rect x="640" y="880" width="40" height="40" fill="#34d399" opacity=".9"/><rect x="680" y="640" width="40" height="40" fill="#22c55e" opacity=".9"/><rect x="680" y="680" width="40" height="40" fill="#5eead4" opacity=".9"/><rect x="680" y="720" width="40" height="40" fill="#34d399" opacity=".9"/><rect x="680" y="760" width="40" height="40" fill="#34d399" opacity=".9"/><rect x="680" y="800" width="40" height="40" fill="#5eead4" opacity=".9"/><rect x="680" y="840" width="40" height="40" fill="#34d399" opacity=".9"/><rect x="680" y="880" width="40" height="40" fill="#34d399" opacity=".9"/><rect x="720" y="600" width="40" height="40" fill="#22c55e" opacity=".9"/><rect x="720" y="640" width="40" height="40" fill="#5eead4" opacity=".9"/><rect x="720" y="680" width="40" height="40" fill="#34d399" opacity=".9"/><rect x="720" y="720" width="40" height="40" fill="#22c55e" opacity=".9"/><rect x="720" y="760" width="40" height="40" fill="#5eead4" opacity=".9"/><rect x="720" y="800" width="40" height="40" fill="#34d399" opacity=".9"/><rect x="720" y="840" width="40" height="40" fill="#5eead4" opacity=".9"/><rect x="720" y="880" width="40" height="40" fill="#34d399" opacity=".9"/><rect x="760" y="640" width="40" height="40" fill="#5eead4" opacity=".9"/><rect x="760" y="680" width="40" height="40" fill="#34d399" opacity=".9"/><rect x="760" y="720" width="40" height="40" fill="#34d399" opacity=".9"/><rect x="760" y="760" width="40" height="40" fill="#34d399" opacity=".9"/><rect x="760" y="800" width="40" height="40" fill="#22c55e" opacity=".9"/><rect x="760" y="840" width="40" height="40" fill="#5eead4" opacity=".9"/><rect x="760" y="880" width="40" height="40" fill="#34d399" opacity=".9"/><rect x="800" y="600" width="40" height="40" fill="#5eead4" opacity=".9"/><rect x="800" y="640" width="40" height="40" fill="#34d399" opacity=".9"/><rect x="800" y="680" width="40" height="40" fill="#5eead4" opacity=".9"/><rect x="800" y="720" width="40" height="40" fill="#5eead4" opacity=".9"/><rect x="800" y="760" width="40" height="40" fill="#5eead4" opacity=".9"/><rect x="800" y="800" width="40" height="40" fill="#5eead4" opacity=".9"/><rect x="800" y="840" width="40" height="40" fill="#5eead4" opacity=".9"/><rect x="800" y="880" width="40" height="40" fill="#22c55e" opacity=".9"/><rect x="840" y="600" width="40" height="40" fill="#5eead4" opacity=".9"/><rect x="840" y="640" width="40" height="40" fill="#22c55e" opacity=".9"/><rect x="840" y="680" width="40" height="40" fill="#22c55e" opacity=".9"/><rect x="840" y="720" width="40" height="40" fill="#5eead4" opacity=".9"/><rect x="840" y="760" width="40" height="40" fill="#22c55e" opacity=".9"/><rect x="840" y="800" width="40" height="40" fill="#5eead4" opacity=".9"/><rect x="840" y="840" width="40" height="40" fill="#22c55e" opacity=".9"/><rect x="840" y="880" width="40" height="40" fill="#34d399" opacity=".9"/><rect x="880" y="640" width="40" height="40" fill="#22c55e" opacity=".9"/><rect x="880" y="680" width="40" height="40" fill="#5eead4" opacity=".9"/><rect x="880" y="720" width="40" height="40" fill="#34d399" opacity=".9"/><rect x="880" y="760" width="40" height="40" fill="#5eead4" opacity=".9"/><rect x="880" y="800" width="40" height="40" fill="#5eead4" opacity=".9"/><rect x="880" y="840" width="40" height="40" fill="#22c55e" opacity=".9"/><rect x="880" y="880" width="40" height="40" fill="#34d399" opacity=".9"/><rect x="920" y="600" width="40" height="40" fill="#34d399" opacity=".9"/><rect x="920" y="640" width="40" height="40" fill="#22c55e" opacity=".9"/><rect x="920" y="680" width="40" height="40" fill="#5eead4" opacity=".9"/><rect x="920" y="720" width="40" height="40" fill="#34d399" opacity=".9"/><rect x="920" y="760" width="40" height="40" fill="#5eead4" opacity=".9"/><rect x="920" y="800" width="40" height="40" fill="#5eead4" opacity=".9"/><rect x="920" y="840" width="40" height="40" fill="#34d399" opacity=".9"/><rect x="920" y="880" width="40" height="40" fill="#34d399" opacity=".9"/><rect x="960" y="640" width="40" height="40" fill="#34d399" opacity=".9"/><rect x="960" y="680" width="40" height="40" fill="#5eead4" opacity=".9"/><rect x="960" y="720" width="40" height="40" fill="#5eead4" opacity=".9"/><rect x="960" y="760" width="40" height="40" fill="#34d399" opacity=".9"/><rect x="960" y="800" width="40" height="40" fill="#34d399" opacity=".9"/><rect x="960" y="840" width="40" height="40" fill="#5eead4" opacity=".9"/><rect x="960" y="880" width="40" height="40" fill="#22c55e" opacity=".9"/><rect x="1000" y="600" width="40" height="40" fill="#34d399" opacity=".9"/><rect x="1000" y="640" width="40" height="40" fill="#5eead4" opacity=".9"/><rect x="1000" y="680" width="40" height="40" fill="#34d399" opacity=".9"/><rect x="1000" y="720" width="40" height="40" fill="#5eead4" opacity=".9"/><rect x="1000" y="760" width="40" height="40" fill="#5eead4" opacity=".9"/><rect x="1000" y="800" width="40" height="40" fill="#5eead4" opacity=".9"/><rect x="1000" y="840" width="40" height="40" fill="#34d399" opacity=".9"/><rect x="1000" y="880" width="40" height="40" fill="#34d399" opacity=".9"/><rect x="1040" y="600" width="40" height="40" fill="#5eead4" opacity=".9"/><rect x="1040" y="640" width="40" height="40" fill="#22c55e" opacity=".9"/><rect x="1040" y="680" width="40" height="40" fill="#5eead4" opacity=".9"/><rect x="1040" y="720" width="40" height="40" fill="#5eead4" opacity=".9"/><rect x="1040" y="760" width="40" height="40" fill="#34d399" opacity=".9"/><rect x="1040" y="800" width="40" height="40" fill="#34d399" opacity=".9"/><rect x="1040" y="840" width="40" height="40" fill="#5eead4" opacity=".9"/><rect x="1040" y="880" width="40" height="40" fill="#34d399" opacity=".9"/><rect x="1080" y="640" width="40" height="40" fill="#5eead4" opacity=".9"/><rect x="1080" y="680" width="40" height="40" fill="#34d399" opacity=".9"/><rect x="1080" y="720" width="40" height="40" fill="#22c55e" opacity=".9"/><rect x="1080" y="760" width="40" height="40" fill="#5eead4" opacity=".9"/><rect x="1080" y="800" width="40" height="40" fill="#22c55e" opacity=".9"/><rect x="1080" y="840" width="40" height="40" fill="#34d399" opacity=".9"/><rect x="1080" y="880" width="40" height="40" fill="#22c55e" opacity=".9"/><rect x="1120" y="600" width="40" height="40" fill="#22c55e" opacity=".9"/><rect x="1120" y="640" width="40" height="40" fill="#22c55e" opacity=".9"/><rect x="1120" y="680" width="40" height="40" fill="#22c55e" opacity=".9"/><rect x="1120" y="720" width="40" height="40" fill="#5eead4" opacity=".9"/><rect x="1120" y="760" width="40" height="40" fill="#34d399" opacity=".9"/><rect x="1120" y="800" width="40" height="40" fill="#34d399" opacity=".9"/><rect x="1120" y="840" width="40" height="40" fill="#5eead4" opacity=".9"/><rect x="1120" y="880" width="40" height="40" fill="#34d399" opacity=".9"/><rect x="1160" y="640" width="40" height="40" fill="#5eead4" opacity=".9"/><rect x="1160" y="680" width="40" height="40" fill="#22c55e" opacity=".9"/><rect x="1160" y="720" width="40" height="40" fill="#5eead4" opacity=".9"/><rect x="1160" y="760" width="40" height="40" fill="#34d399" opacity=".9"/><rect x="1160" y="800" width="40" height="40" fill="#34d399" opacity=".9"/><rect x="1160" y="840" width="40" height="40" fill="#22c55e" opacity=".9"/><rect x="1160" y="880" width="40" height="40" fill="#34d399" opacity=".9"/><rect x="1200" y="600" width="40" height="40" fill="#22c55e" opacity=".9"/><rect x="1200" y="640" width="40" height="40" fill="#34d399" opacity=".9"/><rect x="1200" y="680" width="40" height="40" fill="#34d399" opacity=".9"/><rect x="1200" y="720" width="40" height="40" fill="#22c55e" opacity=".9"/><rect x="1200" y="760" width="40" height="40" fill="#5eead4" opacity=".9"/><rect x="1200" y="800" width="40" height="40" fill="#22c55e" opacity=".9"/><rect x="1200" y="840" width="40" height="40" fill="#22c55e" opacity=".9"/><rect x="1200" y="880" width="40" height="40" fill="#34d399" opacity=".9"/><rect x="1240" y="600" width="40" height="40" fill="#34d399" opacity=".9"/><rect x="1240" y="640" width="40" height="40" fill="#34d399" opacity=".9"/><rect x="1240" y="680" width="40" height="40" fill="#34d399" opacity=".9"/><rect x="1240" y="720" width="40" height="40" fill="#5eead4" opacity=".9"/><rect x="1240" y="760" width="40" height="40" fill="#34d399" opacity=".9"/><rect x="1240" y="800" width="40" height="40" fill="#22c55e" opacity=".9"/><rect x="1240" y="840" width="40" height="40" fill="#22c55e" opacity=".9"/><rect x="1240" y="880" width="40" height="40" fill="#5eead4" opacity=".9"/><rect x="1280" y="640" width="40" height="40" fill="#5eead4" opacity=".9"/><rect x="1280" y="680" width="40" height="40" fill="#34d399" opacity=".9"/><rect x="1280" y="720" width="40" height="40" fill="#22c55e" opacity=".9"/><rect x="1280" y="760" width="40" height="40" fill="#5eead4" opacity=".9"/><rect x="1280" y="800" width="40" height="40" fill="#34d399" opacity=".9"/><rect x="1280" y="840" width="40" height="40" fill="#22c55e" opacity=".9"/><rect x="1280" y="880" width="40" height="40" fill="#5eead4" opacity=".9"/><rect x="1320" y="600" width="40" height="40" fill="#5eead4" opacity=".9"/><rect x="1320" y="640" width="40" height="40" fill="#22c55e" opacity=".9"/><rect x="1320" y="680" width="40" height="40" fill="#22c55e" opacity=".9"/><rect x="1320" y="720" width="40" height="40" fill="#34d399" opacity=".9"/><rect x="1320" y="760" width="40" height="40" fill="#22c55e" opacity=".9"/><rect x="1320" y="800" width="40" height="40" fill="#34d399" opacity=".9"/><rect x="1320" y="840" width="40" height="40" fill="#22c55e" opacity=".9"/><rect x="1320" y="880" width="40" height="40" fill="#34d399" opacity=".9"/><rect x="1360" y="640" width="40" height="40" fill="#34d399" opacity=".9"/><rect x="1360" y="680" width="40" height="40" fill="#5eead4" opacity=".9"/><rect x="1360" y="720" width="40" height="40" fill="#5eead4" opacity=".9"/><rect x="1360" y="760" width="40" height="40" fill="#5eead4" opacity=".9"/><rect x="1360" y="800" width="40" height="40" fill="#5eead4" opacity=".9"/><rect x="1360" y="840" width="40" height="40" fill="#5eead4" opacity=".9"/><rect x="1360" y="880" width="40" height="40" fill="#22c55e" opacity=".9"/><rect x="1400" y="600" width="40" height="40" fill="#34d399" opacity=".9"/><rect x="1400" y="640" width="40" height="40" fill="#5eead4" opacity=".9"/><rect x="1400" y="680" width="40" height="40" fill="#34d399" opacity=".9"/><rect x="1400" y="720" width="40" height="40" fill="#34d399" opacity=".9"/><rect x="1400" y="760" width="40" height="40" fill="#5eead4" opacity=".9"/><rect x="1400" y="800" width="40" height="40" fill="#22c55e" opacity=".9"/><rect x="1400" y="840" width="40" height="40" fill="#5eead4" opacity=".9"/><rect x="1400" y="880" width="40" height="40" fill="#5eead4" opacity=".9"/><rect x="1440" y="600" width="40" height="40" fill="#5eead4" opacity=".9"/><rect x="1440" y="640" width="40" height="40" fill="#22c55e" opacity=".9"/><rect x="1440" y="680" width="40" height="40" fill="#22c55e" opacity=".9"/><rect x="1440" y="720" width="40" height="40" fill="#34d399" opacity=".9"/><rect x="1440" y="760" width="40" height="40" fill="#22c55e" opacity=".9"/><rect x="1440" y="800" width="40" height="40" fill="#34d399" opacity=".9"/><rect x="1440" y="840" width="40" height="40" fill="#22c55e" opacity=".9"/><rect x="1440" y="880" width="40" height="40" fill="#34d399" opacity=".9"/><rect x="1480" y="640" width="40" height="40" fill="#5eead4" opacity=".9"/><rect x="1480" y="680" width="40" height="40" fill="#5eead4" opacity=".9"/><rect x="1480" y="720" width="40" height="40" fill="#5eead4" opacity=".9"/><rect x="1480" y="760" width="40" height="40" fill="#22c55e" opacity=".9"/><rect x="1480" y="800" width="40" height="40" fill="#22c55e" opacity=".9"/><rect x="1480" y="840" width="40" height="40" fill="#5eead4" opacity=".9"/><rect x="1480" y="880" width="40" height="40" fill="#34d399" opacity=".9"/><rect x="1520" y="600" width="40" height="40" fill="#22c55e" opacity=".9"/><rect x="1520" y="640" width="40" height="40" fill="#34d399" opacity=".9"/><rect x="1520" y="680" width="40" height="40" fill="#22c55e" opacity=".9"/><rect x="1520" y="720" width="40" height="40" fill="#5eead4" opacity=".9"/><rect x="1520" y="760" width="40" height="40" fill="#5eead4" opacity=".9"/><rect x="1520" y="800" width="40" height="40" fill="#34d399" opacity=".9"/><rect x="1520" y="840" width="40" height="40" fill="#5eead4" opacity=".9"/><rect x="1520" y="880" width="40" height="40" fill="#22c55e" opacity=".9"/><rect x="1560" y="640" width="40" height="40" fill="#5eead4" opacity=".9"/><rect x="1560" y="680" width="40" height="40" fill="#34d399" opacity=".9"/><rect x="1560" y="720" width="40" height="40" fill="#34d399" opacity=".9"/><rect x="1560" y="760" width="40" height="40" fill="#5eead4" opacity=".9"/><rect x="1560" y="800" width="40" height="40" fill="#5eead4" opacity=".9"/><rect x="1560" y="840" width="40" height="40" fill="#22c55e" opacity=".9"/><rect x="1560" y="880" width="40" height="40" fill="#34d399" opacity=".9"/><rect x="700" y="520" width="80" height="80" fill="#ef4444"/><rect x="720" y="540" width="40" height="20" fill="#fff"/></svg>