<svg xmlns="http://www.w3.org/2000/svg" viewBox="0 0 1600 900" preserveAspectRatio="xMidYMid slice"><defs><linearGradient id="a" x1="0" y1="0" x2="0" y2="1"><stop offset="0" stop-color="#050510"/><stop offset="1" stop-color="#1a0a3a"/></linearGradient></defs><rect width="1600" height="900" fill="url(#a)"/><line x1="800" y1="520" x2="-600" y2="900" stroke="#22d3ee" stroke-width="2" opacity=".7"/><line x1="800" y1="520" x2="-450" y2="900" stroke="#22d3ee" stroke-width="2" opacity=".7"/><line x1="800" y1="520" x2="-300" y2="900" stroke="#22d3ee" stroke-width="2" opacity=".7"/><line x1="800" y1="520" x2="-150" y2="900" stroke="#22d3ee" stroke-width="2" opacity=".7"/><line x1="800" y1="520" x2="0" y2="900" stroke="#22d3ee" stroke-width="2" opacity=".7"/><line x1="800" y1="520" x2="150" y2="900" stroke="#22d3ee" stroke-width="2" opacity=".7"/><line x1="800" y1="520" x2="300" y2="900" stroke="#22d3ee" stroke-width="2" opacity=".7"/><line x1="800" y1="520" x2="450" y2="900" stroke="#22d3ee" stroke-width="2" opacity=".7"/><line x1="800" y1="520" x2="600" y2="900" stroke="#22d3ee" stroke-width="2" opacity=".7"/><line x1="800" y1="520" x2="750" y2="900" stroke="#22d3ee" stroke-width="2" opacity=".7"/><line x1="800" y1="520" x2="900" y2="900" stroke="#22d3ee" stroke-width="2" opacity=".7"/><line x1="800" y1="520" x2="1050" y2="900" stroke="#22d3ee" stroke-width="2" opacity=".7"/><line x1="800" y1="520" x2="1200" y2="900" stroke="#22d3ee" stroke-width="2" opacity=".7"/><line x1="800" y1="520" x2="1350" y2="900" stroke="#22d3ee" stroke-width="2" opacity=".7"/><line x1="800" y1="520" x2="1500" y2="900" stroke="#22d3ee" stroke-width="2" opacity=".7"/><line x1="800" y1="520" x2="1650" y2="900" stroke="#22d3ee" stroke-width="2" opacity=".7"/><line x1="800" y1="520" x2="1800" y2="900" stroke="#22d3ee" stroke-width="2" opacity=".7"/><line x1="800" y1="520" x2="1950" y2="900" stroke="#22d3ee" stroke-width="2" opacity=".7"/><line x1="800" y1="520" x2="2100" y2="900" stroke="#22d3ee" stroke-width="2" opacity=".7"/><line x1="800" y1="520" x2="2250" y2="900" stroke="#22d3ee" stroke-width="2" opacity=".7"/><line x1="0" x2="1600" y1="527" y2="527" stroke="#f43f5e" opacity=".6"/><line x1="0" x2="1600" y1="548" y2="548" stroke="#f43f5e" opacity=".6"/><line x1="0" x2="1600" y1="583" y2="583" stroke="#f43f5e" opacity=".6"/><line x1="0" x2="1600" y1="632" y2="632" stroke="#f43f5e" opacity=".6"/><line x1="0" x2="1600" y1="695" y2="695" stroke="#f43f5e" opacity=".6"/><line x1="0" x2="1600" y1="772" y2="772" stroke="#f43f5e" opacity=".6"/><g transform="translate(560,640) scale(1.5)"><path d="M0 60 L40 55 L90 20 L190 20 L250 52 L330 60 L335 85 L0 85Z" fill="#8b5cf6"/><circle cx="80" cy="88" r="26" fill="#111"/><circle cx="265" cy="88" r="26" fill="#111"/><path d="M100 28 L185 28 L225 52 L70 52Z" fill="#9fd8ff88"/></g><circle cx="800" cy="400" r="120" fill="#f43f5e" opacity=".8"/></svg>